<svg id="Layer_1" data-name="Layer 1" xmlns="http://www.w3.org/2000/svg" viewBox="0 0 500 500"><defs><style>@media(prefers-color-scheme:dark){path{fill:#eee}}.cls-1{fill:#f2ae0b;stroke:#f2ae0b;stroke-miterlimit:10;stroke-width:5.98px;}</style></defs><line class="cls-1" x1="503" y1="250" x2="-3" y2="250"/><line class="cls-1" x1="123.5" y1="30.9" x2="376.5" y2="469.1"/><line class="cls-1" x1="123.5" y1="469.1" x2="376.5" y2="30.9"/><path d="M235.82,11.37H288L293.2,4.7q8.44,6.73,8.44,8.63c0,.6-.4,1.15-1.21,1.65l-3.49,2.23v86.13q0,11.18-14.41,11.18c-.12-2.54-1.94-4.41-5.45-5.59q-3.06-1.08-15.75-3V102.2a204.77,204.77,0,0,0,22.47,1.27c3.56,0,5.34-1.56,5.34-4.7V70.59H234q-1.39,14.59-6.67,25-6.21,12.49-20.5,21.32L204.52,114q22.1-17.2,22.09-55.73V7.18A91.45,91.45,0,0,1,235.82,11.37Zm53.32,56V41.64H234.55V58.28q0,4.13-.26,9.07ZM234.55,14.6V38.41h54.59V14.6Z"/><path d="M53,128.3H88l6.09-8.19a76.58,76.58,0,0,1,7.68,8.82l-1.46,2.6H53v16.64q0,3.36-.25,9.07H88l6.09-8.19a76.85,76.85,0,0,1,7.68,8.83l-1.46,2.6H52.5q-1.71,17.46-8.82,28.75-6.41,10.1-18.34,17.52L23,203.9q22.08-17.21,22.09-55.73V97.07a90.33,90.33,0,0,1,9.2,4.19h52.18l5.2-6.67q8.45,6.73,8.45,8.63c0,.6-.41,1.15-1.21,1.65l-3.49,2.23v86.13q0,11.18-14.41,11.18c-.13-2.54-2-4.41-5.46-5.59q-3-1.08-15.74-3v-3.75a204.77,204.77,0,0,0,22.47,1.27c3.55,0,5.33-1.56,5.33-4.7V104.49H53Z"/><path d="M403.08,148.17q0,3.36-.51,12.31-1.71,17.46-8.82,28.75-6.42,10.1-18.35,17.52l-2.34-2.85q22.08-17.21,22.09-55.73V97.07a90.33,90.33,0,0,1,9.2,4.19h52.18l5.2-6.67q8.44,6.73,8.44,8.63,0,.9-1.2,1.65l-3.49,2.23v86.13q0,11.18-14.41,11.18c-.13-2.54-1.95-4.41-5.46-5.59q-3-1.08-15.74-3v-3.75a204.77,204.77,0,0,0,22.47,1.27c3.55,0,5.33-1.56,5.33-4.7V104.49H403.08Zm44.31-5c-1.74,0-3.71-1-5.91-3.11Q428.79,128.55,408,121.63l1.2-2.85q20.7,4.56,34.41,11.8,7.8,4.26,7.81,7.94C451.39,141.65,450.05,143.21,447.39,143.21Zm0,30.16q-2.61,0-5.91-3.12Q428.79,158.7,408,151.78l1.2-2.85q20.7,4.56,34.41,11.8,7.8,4.26,7.81,7.94C451.39,171.8,450.05,173.37,447.39,173.37Z"/><path d="M219.14,388.21h66.78L291,382q8.31,6.72,8.31,8.69c0,.64-.44,1.19-1.33,1.65l-3.36,2.1v85.69q0,9.78-14,10c-.13-2.67-1.86-4.53-5.21-5.59q-3.67-1.33-14.66-2.73v-3.49a202.05,202.05,0,0,0,21,1.33c3.39,0,5.08-1.43,5.08-4.31V447.56H218.13v43h-7.81V383.89A78.58,78.58,0,0,1,219.14,388.21Zm67.67,3.24H218.13v23.93h68.68Zm-68.68,52.87h68.68V418.61H218.13Z"/><path d="M35.41,277V377.44H27.47V269.84a65.06,65.06,0,0,1,9.2,3.88h74.65l5.21-6.1q8.06,6.48,8.06,8.32c0,.46-.36,1-1.08,1.52l-3.24,2.35v86.71q0,10-14.28,10.16c.13-2.37-1.1-4-3.68-5q-3.44-1.32-16.19-3.11v-3.36q12.76,1.28,21.27,1.27,5,0,5-4.7V277Zm54.84,53.71,6.22-8.57a60.6,60.6,0,0,1,8.38,9.2l-1.72,2.6H45.56l-1.33-3.23Zm-1.27-32,6.35-8.31a80.79,80.79,0,0,1,8.31,8.95l-1.84,2.6H46.45l-1.27-3.24Z"/><path d="M386.66,277.33h77l5.08-5.83q8.19,6,8.19,8.18c0,.64-.41,1.15-1.21,1.53l-3.36,2v85.19q0,10.61-14.22,10.79-.19-3.75-4.89-5.46-4.06-1.4-15.11-2.73v-3.68q12.63,1.22,20.82,1.21,5.71,0,5.72-4.32V326.08H385.27v53.33h-7.68v-106Q381.33,274.86,386.66,277.33Zm-1.39,3.24v42.28h36.11V280.57Zm79.41,42.28V280.57H428.81v42.28Z"/></svg>