<svg id="Layer_1" data-name="Layer 1" xmlns="http://www.w3.org/2000/svg" viewBox="0 0 500 500"><defs><style>@media(prefers-color-scheme:dark){path{fill:#eee}}.cls-1{fill:#f2ae0b;}</style></defs><path d="M418.34,97.39l20.13-24.55q35.61,35.61,35.61,43.71,0,4.41-7.37,5.89l-16.7,3q-19.14,20.62-52.3,44.44l-9.57-8.1q20.63-27.25,31.67-51.81H84.89a40.13,40.13,0,0,0,.49,6.14q2.2,36.58-15.71,65.31-10.32,16.95-23.09,16.94-18.66,0-18.66-17.68,0-7.11,10.56-18.41,26.28-27.75,30.69-84l12.77,1q1,5.66,2.46,18.17Z"/><path d="M235.65,241.77q19.15,3,27.75,5.16a385.1,385.1,0,0,0,61.88-58H115.34l-6.14-12.52h218l19.65-23.08q35.6,30.93,35.6,38.06,0,3.93-7.61,6.14l-16,3.93a641.08,641.08,0,0,1-79.07,50.82Q286,256,286,259q0,4.67-20.63,10.07l.06,168.44q0,35.11-53.29,35.12Q211.4,457.11,194,451q-17.19-6.15-58.43-11.05v-14q48.85,4.92,79.55,4.91,20.63,0,20.63-16.69Z"/><path class="cls-1" d="M433.32,268.05l-27.26,35.11H31.36l6.14,12.52h425l5.89-10.06Q455.67,288.93,433.32,268.05Z"/><path class="cls-1" d="M232.71,97.39v-70q49.85,0,49.84,11.54,0,6.39-21.11,14.74v43.7Z"/></svg>