<svg id="Layer_1" data-name="Layer 1" xmlns="http://www.w3.org/2000/svg" viewBox="0 0 500 500"><defs><style>@media(prefers-color-scheme:dark){path{fill:#eee}}.cls-1{fill:none;stroke:#f2ae0b;stroke-miterlimit:10;stroke-width:5px;}</style></defs><rect class="cls-1" x="19.93" y="20" width="153.33" height="230"/><rect class="cls-1" x="173.33" y="20" width="153.33" height="230"/><rect class="cls-1" x="326.67" y="20" width="153.33" height="230"/><rect class="cls-1" x="20" y="250" width="153.33" height="230"/><rect class="cls-1" x="173.33" y="250" width="153.33" height="230"/><rect class="cls-1" x="326.67" y="250" width="153.33" height="230"/><path d="M74.08,106.26H105L110.41,99a68.16,68.16,0,0,1,6.8,7.81l-1.29,2.3H74.08v14.71c0,2-.07,4.66-.22,8H105l5.39-7.24a68.24,68.24,0,0,1,6.8,7.81l-1.29,2.3H73.63q-1.51,15.44-7.8,25.43a50,50,0,0,1-16.23,15.5l-2.08-2.52q19.54-15.22,19.54-49.31V78.63a80.78,80.78,0,0,1,8.15,3.71h46.15l4.61-5.9q7.47,6,7.47,7.64c0,.52-.36,1-1.07,1.46l-3.09,2v76.2q0,9.88-12.74,9.88-.18-3.36-4.83-4.94Q109,167.7,97.78,166v-3.31a181.63,181.63,0,0,0,19.88,1.12c3.14,0,4.72-1.38,4.72-4.15V85.2H74.08Z"/><path d="M68.52,58.43v-22h5.07a8.93,8.93,0,0,1,1.55.13,5.26,5.26,0,0,1,1.45.48,4.84,4.84,0,0,1,2.16,2.16,5.22,5.22,0,0,1,.5,1.47,8.93,8.93,0,0,1,.13,1.55,8,8,0,0,1-.13,1.45,4.33,4.33,0,0,1-.5,1.37,4.92,4.92,0,0,1-.9,1.14,4.38,4.38,0,0,1-1.2.81,6.55,6.55,0,0,1,1.49.81A4.56,4.56,0,0,1,79.31,49,5.13,5.13,0,0,1,80,50.54a7.53,7.53,0,0,1,.19,1.71A8.87,8.87,0,0,1,80,53.94a5.37,5.37,0,0,1-.59,1.61,5,5,0,0,1-1.06,1.32,5.86,5.86,0,0,1-1.43.93,6.14,6.14,0,0,1-1.63.49,10.93,10.93,0,0,1-1.7.14ZM70.86,46h2.73a5.2,5.2,0,0,0,1-.09,2.87,2.87,0,0,0,.9-.33,2.75,2.75,0,0,0,.74-.62,3.45,3.45,0,0,0,.51-.81,3.54,3.54,0,0,0,.27-.91,6.41,6.41,0,0,0,.07-1,6.2,6.2,0,0,0-.07-1,3.61,3.61,0,0,0-.27-.92,3.45,3.45,0,0,0-.51-.81,2.71,2.71,0,0,0-.74-.61,2.87,2.87,0,0,0-.9-.33,5.2,5.2,0,0,0-1-.09H70.86Zm0,10.38h2.73a7.11,7.11,0,0,0,1.11-.09,3.81,3.81,0,0,0,1.07-.33,3.54,3.54,0,0,0,.91-.65,3.72,3.72,0,0,0,.69-.9,3.27,3.27,0,0,0,.36-1,7,7,0,0,0,.09-1.12,7.11,7.11,0,0,0-.09-1.11A3.3,3.3,0,0,0,77.37,50a3.6,3.6,0,0,0-.67-.88,3.69,3.69,0,0,0-2-1,7.08,7.08,0,0,0-1.13-.09H70.86Z"/><path d="M83.85,58.43v-2.1h4.08V38.48H83.85v-2.1h10.5v2.1H90.27V56.33h4.08v2.1Z"/><path d="M103.17,58.67a5.6,5.6,0,0,1-1.47-.2,4,4,0,0,1-1.32-.63,4.24,4.24,0,0,1-1-1.05,5.49,5.49,0,0,1-.66-1.3,6.91,6.91,0,0,1-.33-1.43,12.12,12.12,0,0,1-.09-1.48V42.23a10.61,10.61,0,0,1,.12-1.58,5.6,5.6,0,0,1,.45-1.51,5.21,5.21,0,0,1,.87-1.32,4.82,4.82,0,0,1,2.72-1.53,8.35,8.35,0,0,1,1.57-.15,9.36,9.36,0,0,1,1.49.12,5,5,0,0,1,1.41.45,5.15,5.15,0,0,1,1.23.84,4.26,4.26,0,0,1,.9,1.17,6.22,6.22,0,0,1,.52,1.38,6,6,0,0,1,.18,1.47v.09H107.4V41.6a4.06,4.06,0,0,0-.22-1.32,3,3,0,0,0-.69-1.14,2.74,2.74,0,0,0-1.13-.69,4.43,4.43,0,0,0-1.35-.21,3.82,3.82,0,0,0-1.45.28,2.63,2.63,0,0,0-1.16.89,3.43,3.43,0,0,0-.61,1.33,6.81,6.81,0,0,0-.17,1.49V52.58a8.26,8.26,0,0,0,.06,1,3.6,3.6,0,0,0,.26,1,3.55,3.55,0,0,0,.51.86,3.06,3.06,0,0,0,.73.66,3,3,0,0,0,.92.39,4.09,4.09,0,0,0,1,.12,4.17,4.17,0,0,0,1-.12,2.45,2.45,0,0,0,.88-.41,3,3,0,0,0,.68-.69,3.65,3.65,0,0,0,.45-.85,4.24,4.24,0,0,0,.22-1,8,8,0,0,0,.06-1v-4H104.1v-2.1h5.58v12h-2.07V55a7.2,7.2,0,0,1-.58,1.45,4.44,4.44,0,0,1-1,1.23,3.63,3.63,0,0,1-1.35.77A5.17,5.17,0,0,1,103.17,58.67Z"/><path d="M119.16,58.67a7.81,7.81,0,0,1-1.44-.14,4.79,4.79,0,0,1-1.35-.46,4.92,4.92,0,0,1-1.15-.84,5.15,5.15,0,0,1-.89-1.14,5.85,5.85,0,0,1-.55-1.32,9.53,9.53,0,0,1-.29-1.41v-.15h2.34v.12a5.55,5.55,0,0,0,.33,1.24,3.36,3.36,0,0,0,.68,1.08,2.6,2.6,0,0,0,1,.69,3.62,3.62,0,0,0,1.27.23,3.18,3.18,0,0,0,1.13-.21,2.71,2.71,0,0,0,1-.63,3.52,3.52,0,0,0,.68-.95,5.92,5.92,0,0,0,.4-1.09,6.55,6.55,0,0,0,.2-1.16c0-.39,0-.77,0-1.15s0-.79,0-1.17a7.5,7.5,0,0,0-.18-1.14A5.33,5.33,0,0,0,122,48a3.63,3.63,0,0,0-.66-.94,2.63,2.63,0,0,0-1-.63,3.12,3.12,0,0,0-1.14-.21,3.86,3.86,0,0,0-1.2.19,2.54,2.54,0,0,0-1,.63,2.89,2.89,0,0,0-.66,1,4,4,0,0,0-.26,1.23h-2.34V36.38h10.38v2.1h-8V44.9a4.53,4.53,0,0,1,1.52-.63,7.61,7.61,0,0,1,1.63-.18,6.78,6.78,0,0,1,1.73.22,4.38,4.38,0,0,1,1.56.77,5.09,5.09,0,0,1,1.18,1.27,6.59,6.59,0,0,1,.75,1.56,8.83,8.83,0,0,1,.38,1.71,15,15,0,0,1,.1,1.76,14.79,14.79,0,0,1-.1,1.75,8.17,8.17,0,0,1-.39,1.71,7,7,0,0,1-.78,1.58,5,5,0,0,1-1.2,1.27,4.51,4.51,0,0,1-1.56.75A6.8,6.8,0,0,1,119.16,58.67Z"/><path d="M61.79,208.44V194h2.78v14.18c0,3.14,2.18,5.42,5.76,5.42s5.73-2.28,5.73-5.42V194h2.78v14.4c0,4.5-3.37,7.78-8.51,7.78S61.79,212.94,61.79,208.44Z"/><path d="M84.11,194h3.28l8.88,14c.59.93,1.58,2.6,2.58,4.58-.18-2.11-.19-4-.19-5.15V194h2.78v21.83H98.13l-7.91-12.42c-1-1.57-1.83-3-3.53-6.07.12,2.8.22,5,.22,6v12.45h-2.8Z"/><path d="M109.5,215.87h-2.78V194h2.78Z"/><path d="M113.92,205c0-6.93,4.09-11.22,9.69-11.22a8.51,8.51,0,0,1,8.8,7.17h-2.78a5.83,5.83,0,0,0-6-4.59c-3.93,0-7,3-7,8.64s3.06,8.62,7,8.62a5.84,5.84,0,0,0,6-4.59h2.78a8.51,8.51,0,0,1-8.8,7.16C118,216.16,113.92,211.89,113.92,205Z"/><path d="M228.61,82.34h46.15l4.61-5.9q7.47,6,7.47,7.64c0,.52-.36,1-1.07,1.46l-3.09,2v76.2q0,9.88-12.75,9.88-.17-3.36-4.83-4.94-2.69-.94-13.92-2.64v-3.31a181.63,181.63,0,0,0,19.88,1.12q4.71,0,4.71-4.15V134.73H227q-1.23,12.92-5.89,22.07-5.5,11.05-18.14,18.86l-2.08-2.52q19.54-15.22,19.54-49.31V78.63A80.78,80.78,0,0,1,228.61,82.34Zm47.16,49.52V109.12H227.48v14.71c0,2.44-.07,5.11-.22,8ZM227.48,85.2v21.06h48.29V85.2Z"/><path d="M221.92,58.43v-22H227a8.81,8.81,0,0,1,1.54.13A5.33,5.33,0,0,1,230,37a4.74,4.74,0,0,1,1.24.9,5,5,0,0,1,.92,1.26,5.19,5.19,0,0,1,.49,1.47,8.93,8.93,0,0,1,.14,1.55,8,8,0,0,1-.14,1.45,4.31,4.31,0,0,1-.49,1.37,4.92,4.92,0,0,1-.9,1.14,4.38,4.38,0,0,1-1.2.81,6.49,6.49,0,0,1,1.48.81A4.56,4.56,0,0,1,232.7,49a4.89,4.89,0,0,1,.66,1.56,7.54,7.54,0,0,1,.2,1.71,8.89,8.89,0,0,1-.17,1.69,5.35,5.35,0,0,1-.58,1.61,5,5,0,0,1-1.07,1.32,5.8,5.8,0,0,1-1.42.93,6.21,6.21,0,0,1-1.64.49,10.8,10.8,0,0,1-1.69.14ZM224.26,46H227a5.2,5.2,0,0,0,1-.09,2.87,2.87,0,0,0,.9-.33,2.71,2.71,0,0,0,.73-.62,3.45,3.45,0,0,0,.51-.81,3.54,3.54,0,0,0,.27-.91,6.4,6.4,0,0,0,.08-1,6.22,6.22,0,0,0-.08-1,3.61,3.61,0,0,0-.27-.92,3.45,3.45,0,0,0-.51-.81,2.67,2.67,0,0,0-.73-.61,2.87,2.87,0,0,0-.9-.33,5.2,5.2,0,0,0-1-.09h-2.73Zm0,10.38H227a7.11,7.11,0,0,0,1.11-.09,3.74,3.74,0,0,0,1.06-.33,3.59,3.59,0,0,0,.92-.65,3.72,3.72,0,0,0,.69-.9,3.27,3.27,0,0,0,.36-1,7,7,0,0,0,.09-1.12,7.11,7.11,0,0,0-.09-1.11,3.3,3.3,0,0,0-.36-1.07,3.64,3.64,0,0,0-.68-.88,3.6,3.6,0,0,0-2-1,7,7,0,0,0-1.12-.09h-2.73Z"/><path d="M237.25,58.43v-2.1h4.08V38.48h-4.08v-2.1h10.5v2.1h-4.08V56.33h4.08v2.1Z"/><path d="M256.57,58.67a5.6,5.6,0,0,1-1.47-.2,4,4,0,0,1-1.32-.63,4.24,4.24,0,0,1-1-1.05,5.49,5.49,0,0,1-.66-1.3,6.91,6.91,0,0,1-.33-1.43,12.12,12.12,0,0,1-.09-1.48V42.23a10.61,10.61,0,0,1,.12-1.58,5.6,5.6,0,0,1,.45-1.51,5.21,5.21,0,0,1,.87-1.32,4.87,4.87,0,0,1,1.23-1,4.78,4.78,0,0,1,1.48-.54,8.53,8.53,0,0,1,1.58-.15,9.14,9.14,0,0,1,1.48.12,5,5,0,0,1,1.41.45,5.15,5.15,0,0,1,1.23.84,4.26,4.26,0,0,1,.9,1.17A6.25,6.25,0,0,1,263,40.1a6,6,0,0,1,.18,1.47v.09H260.8V41.6a4.08,4.08,0,0,0-.23-1.32,3,3,0,0,0-.69-1.14,2.65,2.65,0,0,0-1.12-.69,4.43,4.43,0,0,0-1.35-.21,3.87,3.87,0,0,0-1.46.28,2.66,2.66,0,0,0-1.15.89,3.45,3.45,0,0,0-.62,1.33,6.8,6.8,0,0,0-.16,1.49V52.58a8.26,8.26,0,0,0,.06,1,3.56,3.56,0,0,0,.76,1.82,3.1,3.1,0,0,0,.74.66,3,3,0,0,0,.91.39,4.17,4.17,0,0,0,1,.12,4.09,4.09,0,0,0,1-.12,2.5,2.5,0,0,0,.89-.41,2.93,2.93,0,0,0,.67-.69,3.65,3.65,0,0,0,.45-.85,4.25,4.25,0,0,0,.23-1,8,8,0,0,0,.06-1v-4H257.5v-2.1h5.58v12H261V55a7.24,7.24,0,0,1-.59,1.45,4.44,4.44,0,0,1-1,1.23,3.63,3.63,0,0,1-1.35.77A5.1,5.1,0,0,1,256.57,58.67Z"/><path d="M272.56,58.67a7.81,7.81,0,0,1-1.44-.14,4.79,4.79,0,0,1-1.35-.46,5,5,0,0,1-1.16-.84,5.11,5.11,0,0,1-.88-1.14,5.89,5.89,0,0,1-.56-1.32,9.51,9.51,0,0,1-.28-1.41v-.15h2.34v.12a5.55,5.55,0,0,0,.33,1.24,3.33,3.33,0,0,0,.67,1.08,2.67,2.67,0,0,0,1,.69,3.71,3.71,0,0,0,1.28.23,3.13,3.13,0,0,0,1.12-.21,2.75,2.75,0,0,0,1-.63,3.48,3.48,0,0,0,.67-.95,6,6,0,0,0,.41-1.09,6.53,6.53,0,0,0,.19-1.16c0-.39.05-.77.05-1.15s0-.79-.05-1.17a7.5,7.5,0,0,0-.18-1.14,5.33,5.33,0,0,0-.39-1.1,3.63,3.63,0,0,0-.66-.94,2.6,2.6,0,0,0-.94-.63,3.12,3.12,0,0,0-1.14-.21,3.86,3.86,0,0,0-1.2.19,2.58,2.58,0,0,0-1,.63,2.89,2.89,0,0,0-.66,1,4,4,0,0,0-.25,1.23h-2.34V36.38h10.38v2.1h-8V44.9a4.48,4.48,0,0,1,1.51-.63,7.7,7.7,0,0,1,1.64-.18,6.71,6.71,0,0,1,1.72.22,4.38,4.38,0,0,1,1.56.77,5.13,5.13,0,0,1,1.19,1.27,6.59,6.59,0,0,1,.75,1.56,8.82,8.82,0,0,1,.37,1.71,15,15,0,0,1,.11,1.76,14.82,14.82,0,0,1-.11,1.75,8.17,8.17,0,0,1-.39,1.71,7,7,0,0,1-.78,1.58,5,5,0,0,1-1.2,1.27,4.51,4.51,0,0,1-1.56.75A6.72,6.72,0,0,1,272.56,58.67Z"/><path d="M215.19,208.44V194H218v14.18c0,3.14,2.18,5.42,5.76,5.42s5.73-2.28,5.73-5.42V194h2.78v14.4c0,4.5-3.37,7.78-8.51,7.78S215.19,212.94,215.19,208.44Z"/><path d="M237.51,194h3.28l8.88,14c.59.93,1.58,2.6,2.58,4.58-.18-2.11-.19-4-.19-5.15V194h2.78v21.83h-3.31l-7.91-12.42c-1-1.57-1.83-3-3.53-6.07.12,2.8.22,5,.22,6v12.45h-2.8Z"/><path d="M262.9,215.87h-2.79V194h2.79Z"/><path d="M267.32,205c0-6.93,4.09-11.22,9.68-11.22a8.51,8.51,0,0,1,8.81,7.17H283a5.81,5.81,0,0,0-6-4.59c-3.92,0-7,3-7,8.64s3.06,8.62,7,8.62a5.83,5.83,0,0,0,6-4.59h2.79a8.51,8.51,0,0,1-8.81,7.16C271.41,216.16,267.32,211.89,267.32,205Z"/><path d="M380.82,123.83q0,3-.45,10.9-1.51,15.44-7.81,25.43a50,50,0,0,1-16.23,15.5l-2.07-2.52q19.53-15.22,19.54-49.31V78.63a80.66,80.66,0,0,1,8.14,3.71H428.1l4.6-5.9q7.47,6,7.47,7.64c0,.52-.36,1-1.07,1.46l-3.09,2v76.2q0,9.88-12.74,9.88-.18-3.36-4.83-4.94-2.7-.94-13.93-2.64v-3.31a181.76,181.76,0,0,0,19.88,1.12q4.73,0,4.72-4.15V85.2H380.82ZM420,119.45c-1.54,0-3.28-.91-5.22-2.75q-11.24-10.22-29.65-16.34l1.07-2.52q18.3,4,30.43,10.44,6.92,3.77,6.91,7Q423.55,119.45,420,119.45Zm0,26.68q-2.31,0-5.22-2.75Q403.56,133.15,385.14,127l1.07-2.52q18.3,4,30.43,10.44,6.92,3.77,6.91,7Q423.55,146.13,420,146.13Z"/><path d="M375.25,58.43v-22h5.07a8.93,8.93,0,0,1,1.55.13,5.26,5.26,0,0,1,1.45.48,4.79,4.79,0,0,1,1.25.9,4.94,4.94,0,0,1,.91,1.26,5.22,5.22,0,0,1,.5,1.47,8.93,8.93,0,0,1,.13,1.55,8,8,0,0,1-.13,1.45,4.33,4.33,0,0,1-.5,1.37,4.92,4.92,0,0,1-.9,1.14,4.38,4.38,0,0,1-1.2.81,6.55,6.55,0,0,1,1.49.81A4.56,4.56,0,0,1,386,49a4.89,4.89,0,0,1,.66,1.56,7.53,7.53,0,0,1,.19,1.71,8.87,8.87,0,0,1-.16,1.69,5.37,5.37,0,0,1-.59,1.61,5,5,0,0,1-1.06,1.32,5.86,5.86,0,0,1-1.43.93,6.14,6.14,0,0,1-1.63.49,10.93,10.93,0,0,1-1.7.14ZM377.59,46h2.73a5.2,5.2,0,0,0,1-.09,2.87,2.87,0,0,0,.9-.33,2.75,2.75,0,0,0,.74-.62,3.45,3.45,0,0,0,.51-.81,3.54,3.54,0,0,0,.27-.91,6.41,6.41,0,0,0,.07-1,6.2,6.2,0,0,0-.07-1,3.61,3.61,0,0,0-.27-.92,3.45,3.45,0,0,0-.51-.81,2.71,2.71,0,0,0-.74-.61,2.87,2.87,0,0,0-.9-.33,5.2,5.2,0,0,0-1-.09h-2.73Zm0,10.38h2.73a7.11,7.11,0,0,0,1.11-.09,3.81,3.81,0,0,0,1.07-.33,3.54,3.54,0,0,0,.91-.65,3.72,3.72,0,0,0,.69-.9,3.27,3.27,0,0,0,.36-1,7,7,0,0,0,.09-1.12,7.11,7.11,0,0,0-.09-1.11A3.3,3.3,0,0,0,384.1,50a3.6,3.6,0,0,0-.67-.88,3.73,3.73,0,0,0-.92-.65,3.65,3.65,0,0,0-1.06-.34,7.08,7.08,0,0,0-1.13-.09h-2.73Z"/><path d="M390.58,58.43v-2.1h4.08V38.48h-4.08v-2.1h10.5v2.1H397V56.33h4.08v2.1Z"/><path d="M409.9,58.67a5.6,5.6,0,0,1-1.47-.2,4,4,0,0,1-1.32-.63,4.24,4.24,0,0,1-1-1.05,5.49,5.49,0,0,1-.66-1.3,6.91,6.91,0,0,1-.33-1.43,12.12,12.12,0,0,1-.09-1.48V42.23a10.61,10.61,0,0,1,.12-1.58,5.6,5.6,0,0,1,.45-1.51,5.21,5.21,0,0,1,.87-1.32,4.82,4.82,0,0,1,2.72-1.53,8.43,8.43,0,0,1,1.57-.15,9.26,9.26,0,0,1,1.49.12,5,5,0,0,1,1.41.45,5.15,5.15,0,0,1,1.23.84,4.26,4.26,0,0,1,.9,1.17,6.22,6.22,0,0,1,.52,1.38,6,6,0,0,1,.18,1.47v.09h-2.34V41.6a4.06,4.06,0,0,0-.22-1.32,3,3,0,0,0-.69-1.14,2.68,2.68,0,0,0-1.13-.69,4.43,4.43,0,0,0-1.35-.21,3.82,3.82,0,0,0-1.45.28,2.69,2.69,0,0,0-1.16.89,3.43,3.43,0,0,0-.61,1.33,6.81,6.81,0,0,0-.17,1.49V52.58a8.26,8.26,0,0,0,.06,1,3.6,3.6,0,0,0,.26,1,3.55,3.55,0,0,0,.51.86,3.06,3.06,0,0,0,.73.66,3,3,0,0,0,.92.39,4.09,4.09,0,0,0,1,.12,4.17,4.17,0,0,0,1-.12,2.45,2.45,0,0,0,.88-.41,3,3,0,0,0,.68-.69,3.65,3.65,0,0,0,.45-.85,4.24,4.24,0,0,0,.22-1,8,8,0,0,0,.06-1v-4h-3.24v-2.1h5.58v12h-2.07V55a7.2,7.2,0,0,1-.58,1.45,4.44,4.44,0,0,1-1,1.23,3.63,3.63,0,0,1-1.35.77A5.17,5.17,0,0,1,409.9,58.67Z"/><path d="M425.89,58.67a7.81,7.81,0,0,1-1.44-.14,4.79,4.79,0,0,1-1.35-.46,4.92,4.92,0,0,1-1.15-.84,5.15,5.15,0,0,1-.89-1.14,5.85,5.85,0,0,1-.55-1.32,9.53,9.53,0,0,1-.29-1.41v-.15h2.34v.12a5.55,5.55,0,0,0,.33,1.24,3.36,3.36,0,0,0,.68,1.08,2.67,2.67,0,0,0,1.05.69,3.66,3.66,0,0,0,1.27.23,3.18,3.18,0,0,0,1.13-.21,2.71,2.71,0,0,0,1-.63,3.52,3.52,0,0,0,.68-.95,5.92,5.92,0,0,0,.4-1.09,6.55,6.55,0,0,0,.2-1.16c0-.39,0-.77,0-1.15s0-.79,0-1.17a7.5,7.5,0,0,0-.18-1.14,5.33,5.33,0,0,0-.39-1.1A3.63,3.63,0,0,0,428,47a2.63,2.63,0,0,0-1-.63,3.12,3.12,0,0,0-1.14-.21,3.86,3.86,0,0,0-1.2.19,2.54,2.54,0,0,0-1,.63,2.89,2.89,0,0,0-.66,1,4,4,0,0,0-.26,1.23h-2.34V36.38h10.38v2.1h-8V44.9a4.53,4.53,0,0,1,1.52-.63,7.61,7.61,0,0,1,1.63-.18,6.78,6.78,0,0,1,1.73.22,4.38,4.38,0,0,1,1.56.77,5.09,5.09,0,0,1,1.18,1.27,6.59,6.59,0,0,1,.75,1.56,8.83,8.83,0,0,1,.38,1.71,15,15,0,0,1,.1,1.76,14.79,14.79,0,0,1-.1,1.75,8.17,8.17,0,0,1-.39,1.71,7,7,0,0,1-.78,1.58,5,5,0,0,1-1.2,1.27,4.51,4.51,0,0,1-1.56.75A6.8,6.8,0,0,1,425.89,58.67Z"/><path d="M368.52,208.44V194h2.78v14.18c0,3.14,2.19,5.42,5.76,5.42s5.73-2.28,5.73-5.42V194h2.78v14.4c0,4.5-3.37,7.78-8.51,7.78S368.52,212.94,368.52,208.44Z"/><path d="M390.84,194h3.29L403,208c.59.93,1.58,2.6,2.58,4.58-.17-2.11-.19-4-.19-5.15V194h2.78v21.83h-3.31L397,203.45c-1-1.57-1.83-3-3.53-6.07.12,2.8.22,5,.22,6v12.45h-2.8Z"/><path d="M416.23,215.87h-2.78V194h2.78Z"/><path d="M420.65,205c0-6.93,4.09-11.22,9.69-11.22a8.51,8.51,0,0,1,8.8,7.17h-2.78a5.83,5.83,0,0,0-6-4.59c-3.93,0-7,3-7,8.64s3.07,8.62,7,8.62a5.84,5.84,0,0,0,6-4.59h2.78a8.51,8.51,0,0,1-8.8,7.16C424.74,216.16,420.65,211.89,420.65,205Z"/><path d="M62,313.22v88.89H55V306.93a57.45,57.45,0,0,1,8.14,3.43h66l4.6-5.39c4.76,3.81,7.14,6.27,7.14,7.35q0,.62-1,1.35l-2.86,2.08v76.7q0,8.82-12.64,9,.17-3.15-3.25-4.38-3-1.19-14.32-2.76v-3q11.28,1.13,18.81,1.12,4.38,0,4.38-4.15V313.22Zm48.52,47.51,5.5-7.58a53.52,53.52,0,0,1,7.41,8.14l-1.51,2.3H71l-1.18-2.86Zm-1.13-28.31,5.62-7.35a72.75,72.75,0,0,1,7.36,7.92l-1.63,2.3h-49l-1.12-2.87Z"/><path d="M68.52,288.3V266.25h5.07a8.93,8.93,0,0,1,1.55.14,5.26,5.26,0,0,1,1.45.48A4.84,4.84,0,0,1,78.75,269a5.22,5.22,0,0,1,.5,1.47,8.81,8.81,0,0,1,.13,1.54,8.08,8.08,0,0,1-.13,1.46,4.27,4.27,0,0,1-.5,1.36,4.92,4.92,0,0,1-.9,1.14,4.38,4.38,0,0,1-1.2.81,6.55,6.55,0,0,1,1.49.81,4.56,4.56,0,0,1,1.17,1.23,5.13,5.13,0,0,1,.66,1.56,7.53,7.53,0,0,1,.19,1.71,9,9,0,0,1-.16,1.7,5.31,5.31,0,0,1-.59,1.6,5,5,0,0,1-1.06,1.32,5.86,5.86,0,0,1-1.43.93,6.16,6.16,0,0,1-1.63.5,10.91,10.91,0,0,1-1.7.13Zm2.34-12.48h2.73a5.2,5.2,0,0,0,1-.09,2.87,2.87,0,0,0,.9-.33,2.71,2.71,0,0,0,.74-.61,3.45,3.45,0,0,0,.51-.81,3.61,3.61,0,0,0,.27-.92,6.41,6.41,0,0,0,.07-1,6.2,6.2,0,0,0-.07-1,3.54,3.54,0,0,0-.27-.91,3.45,3.45,0,0,0-.51-.81,2.75,2.75,0,0,0-.74-.62,2.87,2.87,0,0,0-.9-.33,5.2,5.2,0,0,0-1-.09H70.86Zm0,10.38h2.73a7.11,7.11,0,0,0,1.11-.09,3.81,3.81,0,0,0,1.07-.33,3.5,3.5,0,0,0,.91-.64,3.72,3.72,0,0,0,.69-.9,3.27,3.27,0,0,0,.36-1.05,7,7,0,0,0,0-2.24,3.24,3.24,0,0,0-.36-1.06,3.65,3.65,0,0,0-.67-.89,3.7,3.7,0,0,0-.92-.64,3.77,3.77,0,0,0-1.06-.35,7.08,7.08,0,0,0-1.13-.09H70.86Z"/><path d="M83.85,288.3v-2.1h4.08V268.35H83.85v-2.1h10.5v2.1H90.27V286.2h4.08v2.1Z"/><path d="M103.17,288.54a5.59,5.59,0,0,1-1.47-.19,4,4,0,0,1-1.32-.63,4.24,4.24,0,0,1-1-1.05,5.56,5.56,0,0,1-.66-1.31,6.82,6.82,0,0,1-.33-1.42,12.29,12.29,0,0,1-.09-1.49V272.1a10.47,10.47,0,0,1,.12-1.57,5.67,5.67,0,0,1,.45-1.52,5.21,5.21,0,0,1,.87-1.32,4.82,4.82,0,0,1,2.72-1.53A8.35,8.35,0,0,1,104,266a9.36,9.36,0,0,1,1.49.12,5,5,0,0,1,1.41.45,5.15,5.15,0,0,1,1.23.84,4.26,4.26,0,0,1,.9,1.17,6.22,6.22,0,0,1,.52,1.38,6,6,0,0,1,.18,1.47v.09H107.4v-.06a4.06,4.06,0,0,0-.22-1.32,3,3,0,0,0-.69-1.14,2.74,2.74,0,0,0-1.13-.69,4.43,4.43,0,0,0-1.35-.21,3.83,3.83,0,0,0-1.45.29,2.61,2.61,0,0,0-1.16.88,3.48,3.48,0,0,0-.61,1.34,6.72,6.72,0,0,0-.17,1.48v10.35a8.43,8.43,0,0,0,.06,1,3.6,3.6,0,0,0,.26,1,3.49,3.49,0,0,0,.51.85,3.06,3.06,0,0,0,.73.66,3,3,0,0,0,.92.39,4.09,4.09,0,0,0,1,.12,4.17,4.17,0,0,0,1-.12,2.44,2.44,0,0,0,.88-.4,3,3,0,0,0,.68-.69,3.72,3.72,0,0,0,.45-.86,4.16,4.16,0,0,0,.22-.94,8.18,8.18,0,0,0,.06-1V278.4H104.1v-2.1h5.58v12h-2.07v-3.45a7.28,7.28,0,0,1-.58,1.46,4.44,4.44,0,0,1-1,1.23,3.61,3.61,0,0,1-1.35.76A5.17,5.17,0,0,1,103.17,288.54Z"/><path d="M119.16,288.54a7.79,7.79,0,0,1-1.44-.13,4.81,4.81,0,0,1-1.35-.47,4.92,4.92,0,0,1-1.15-.84,5.15,5.15,0,0,1-.89-1.14,5.85,5.85,0,0,1-.55-1.32,9.53,9.53,0,0,1-.29-1.41v-.15h2.34v.12a5.63,5.63,0,0,0,.33,1.25,3.36,3.36,0,0,0,.68,1.08,2.6,2.6,0,0,0,1,.69,3.61,3.61,0,0,0,1.27.22,3.18,3.18,0,0,0,1.13-.21,2.71,2.71,0,0,0,1-.63,3.47,3.47,0,0,0,.68-.94,6,6,0,0,0,.4-1.1,6.44,6.44,0,0,0,.2-1.15c0-.39,0-.78,0-1.16s0-.79,0-1.17a7.5,7.5,0,0,0-.18-1.14,5.25,5.25,0,0,0-.39-1.09,3.68,3.68,0,0,0-.66-1,2.63,2.63,0,0,0-1-.63,3.12,3.12,0,0,0-1.14-.21,3.87,3.87,0,0,0-1.2.2,2.54,2.54,0,0,0-1,.63,2.85,2.85,0,0,0-.66,1,4,4,0,0,0-.26,1.23h-2.34v-12.9h10.38v2.1h-8v6.42a4.53,4.53,0,0,1,1.52-.63,7.61,7.61,0,0,1,1.63-.18,6.8,6.8,0,0,1,1.73.23,4.36,4.36,0,0,1,1.56.76,5.13,5.13,0,0,1,1.18,1.28,6.59,6.59,0,0,1,.75,1.56,8.83,8.83,0,0,1,.38,1.71,14.79,14.79,0,0,1,.1,1.75,15,15,0,0,1-.1,1.76,8.17,8.17,0,0,1-.39,1.71,7,7,0,0,1-.78,1.57,5.05,5.05,0,0,1-1.2,1.28,4.51,4.51,0,0,1-1.56.75A6.78,6.78,0,0,1,119.16,288.54Z"/><path d="M61.79,438.32v-14.4h2.78V438.1c0,3.13,2.18,5.42,5.76,5.42s5.73-2.29,5.73-5.42V423.92h2.78v14.4c0,4.49-3.37,7.78-8.51,7.78S61.79,442.81,61.79,438.32Z"/><path d="M84.11,423.92h3.28l8.88,14c.59.92,1.58,2.59,2.58,4.57-.18-2.11-.19-4-.19-5.14V423.92h2.78v21.82H98.13l-7.91-12.42c-1-1.57-1.83-3-3.53-6.06.12,2.8.22,5,.22,6v12.45h-2.8Z"/><path d="M109.5,445.74h-2.78V423.92h2.78Z"/><path d="M113.92,434.85c0-6.93,4.09-11.23,9.69-11.23a8.51,8.51,0,0,1,8.8,7.17h-2.78a5.83,5.83,0,0,0-6-4.59c-3.93,0-7,3.05-7,8.65s3.06,8.61,7,8.61a5.83,5.83,0,0,0,6-4.59h2.78a8.52,8.52,0,0,1-8.8,7.17C118,446,113.92,441.76,113.92,434.85Z"/><path d="M220,312.66h59.08l4.49-5.5q7.35,5.94,7.35,7.69c0,.56-.39,1-1.17,1.46l-3,1.85V394q0,8.64-12.41,8.81c-.11-2.35-1.65-4-4.6-4.94q-3.27-1.17-13-2.41v-3.09a178.31,178.31,0,0,0,18.59,1.18c3,0,4.49-1.27,4.49-3.82V365.16H219.12v38h-6.91V308.84A70,70,0,0,1,220,312.66Zm59.86,2.86H219.12v21.17h60.75ZM219.12,362.3h60.75V339.56H219.12Z"/><path d="M221.92,288.3V266.25H227a8.82,8.82,0,0,1,1.54.14,5.33,5.33,0,0,1,1.46.48,4.74,4.74,0,0,1,1.24.9,5,5,0,0,1,.92,1.26,5.19,5.19,0,0,1,.49,1.47,8.82,8.82,0,0,1,.14,1.54,8.11,8.11,0,0,1-.14,1.46,4.26,4.26,0,0,1-.49,1.36,4.92,4.92,0,0,1-.9,1.14,4.38,4.38,0,0,1-1.2.81,6.49,6.49,0,0,1,1.48.81,4.56,4.56,0,0,1,1.17,1.23,4.89,4.89,0,0,1,.66,1.56,7.54,7.54,0,0,1,.2,1.71,9,9,0,0,1-.17,1.7,5.29,5.29,0,0,1-.58,1.6,5,5,0,0,1-1.07,1.32,5.8,5.8,0,0,1-1.42.93,6.23,6.23,0,0,1-1.64.5,10.78,10.78,0,0,1-1.69.13Zm2.34-12.48H227a5.2,5.2,0,0,0,1-.09,2.87,2.87,0,0,0,.9-.33,2.67,2.67,0,0,0,.73-.61,3.45,3.45,0,0,0,.51-.81,3.61,3.61,0,0,0,.27-.92,6.4,6.4,0,0,0,.08-1,6.22,6.22,0,0,0-.08-1,3.54,3.54,0,0,0-.27-.91,3.45,3.45,0,0,0-.51-.81,2.71,2.71,0,0,0-.73-.62,2.87,2.87,0,0,0-.9-.33,5.2,5.2,0,0,0-1-.09h-2.73Zm0,10.38H227a7.11,7.11,0,0,0,1.11-.09,3.74,3.74,0,0,0,1.06-.33,3.54,3.54,0,0,0,.92-.64,3.72,3.72,0,0,0,.69-.9,3.27,3.27,0,0,0,.36-1.05,7,7,0,0,0,0-2.24,3.24,3.24,0,0,0-.36-1.06,3.69,3.69,0,0,0-.68-.89,3.64,3.64,0,0,0-.91-.64,3.73,3.73,0,0,0-1.07-.35,7,7,0,0,0-1.12-.09h-2.73Z"/><path d="M237.25,288.3v-2.1h4.08V268.35h-4.08v-2.1h10.5v2.1h-4.08V286.2h4.08v2.1Z"/><path d="M256.57,288.54a5.59,5.59,0,0,1-1.47-.19,4,4,0,0,1-1.32-.63,4.24,4.24,0,0,1-1-1.05,5.56,5.56,0,0,1-.66-1.31,6.82,6.82,0,0,1-.33-1.42,12.29,12.29,0,0,1-.09-1.49V272.1a10.47,10.47,0,0,1,.12-1.57,5.67,5.67,0,0,1,.45-1.52,5.21,5.21,0,0,1,.87-1.32,4.87,4.87,0,0,1,1.23-1,4.78,4.78,0,0,1,1.48-.54,8.53,8.53,0,0,1,1.58-.15,9.14,9.14,0,0,1,1.48.12,5,5,0,0,1,1.41.45,5.15,5.15,0,0,1,1.23.84,4.26,4.26,0,0,1,.9,1.17A6.25,6.25,0,0,1,263,270a6,6,0,0,1,.18,1.47v.09H260.8v-.06a4.08,4.08,0,0,0-.23-1.32,3,3,0,0,0-.69-1.14,2.65,2.65,0,0,0-1.12-.69,4.43,4.43,0,0,0-1.35-.21,3.88,3.88,0,0,0-1.46.29,2.64,2.64,0,0,0-1.15.88,3.5,3.5,0,0,0-.62,1.34,6.71,6.71,0,0,0-.16,1.48v10.35a8.43,8.43,0,0,0,.06,1,3.58,3.58,0,0,0,.25,1,3.49,3.49,0,0,0,.51.85,3.1,3.1,0,0,0,.74.66,3,3,0,0,0,.91.39,4.17,4.17,0,0,0,1,.12,4.09,4.09,0,0,0,1-.12,2.48,2.48,0,0,0,.89-.4,2.93,2.93,0,0,0,.67-.69,3.72,3.72,0,0,0,.45-.86,4.17,4.17,0,0,0,.23-.94,8.18,8.18,0,0,0,.06-1V278.4H257.5v-2.1h5.58v12H261v-3.45a7.32,7.32,0,0,1-.59,1.46,4.44,4.44,0,0,1-1,1.23,3.61,3.61,0,0,1-1.35.76A5.1,5.1,0,0,1,256.57,288.54Z"/><path d="M272.56,288.54a7.79,7.79,0,0,1-1.44-.13,4.81,4.81,0,0,1-1.35-.47,5,5,0,0,1-1.16-.84,5.11,5.11,0,0,1-.88-1.14,5.89,5.89,0,0,1-.56-1.32,9.51,9.51,0,0,1-.28-1.41v-.15h2.34v.12a5.63,5.63,0,0,0,.33,1.25,3.33,3.33,0,0,0,.67,1.08,2.67,2.67,0,0,0,1,.69,3.71,3.71,0,0,0,1.28.22,3.13,3.13,0,0,0,1.12-.21,2.75,2.75,0,0,0,1-.63,3.44,3.44,0,0,0,.67-.94,6.05,6.05,0,0,0,.41-1.1,6.42,6.42,0,0,0,.19-1.15c0-.39.05-.78.05-1.16s0-.79-.05-1.17a7.5,7.5,0,0,0-.18-1.14,5.25,5.25,0,0,0-.39-1.09,3.68,3.68,0,0,0-.66-1,2.6,2.6,0,0,0-.94-.63,3.12,3.12,0,0,0-1.14-.21,3.87,3.87,0,0,0-1.2.2,2.58,2.58,0,0,0-1,.63,2.85,2.85,0,0,0-.66,1,4,4,0,0,0-.25,1.23h-2.34v-12.9h10.38v2.1h-8v6.42a4.48,4.48,0,0,1,1.51-.63,7.7,7.7,0,0,1,1.64-.18,6.72,6.72,0,0,1,1.72.23,4.36,4.36,0,0,1,1.56.76,5.17,5.17,0,0,1,1.19,1.28,6.59,6.59,0,0,1,.75,1.56,8.82,8.82,0,0,1,.37,1.71,14.82,14.82,0,0,1,.11,1.75,15,15,0,0,1-.11,1.76,8.17,8.17,0,0,1-.39,1.71,7,7,0,0,1-.78,1.57,5.05,5.05,0,0,1-1.2,1.28,4.51,4.51,0,0,1-1.56.75A6.71,6.71,0,0,1,272.56,288.54Z"/><path d="M215.19,438.32v-14.4H218V438.1c0,3.13,2.18,5.42,5.76,5.42s5.73-2.29,5.73-5.42V423.92h2.78v14.4c0,4.49-3.37,7.78-8.51,7.78S215.19,442.81,215.19,438.32Z"/><path d="M237.51,423.92h3.28l8.88,14c.59.92,1.58,2.59,2.58,4.57-.18-2.11-.19-4-.19-5.14V423.92h2.78v21.82h-3.31l-7.91-12.42c-1-1.57-1.83-3-3.53-6.06.12,2.8.22,5,.22,6v12.45h-2.8Z"/><path d="M262.9,445.74h-2.79V423.92h2.79Z"/><path d="M267.32,434.85c0-6.93,4.09-11.23,9.68-11.23a8.51,8.51,0,0,1,8.81,7.17H283a5.81,5.81,0,0,0-6-4.59c-3.92,0-7,3.05-7,8.65s3.06,8.61,7,8.61a5.82,5.82,0,0,0,6-4.59h2.79A8.52,8.52,0,0,1,277,446C271.41,446,267.32,441.76,267.32,434.85Z"/><path d="M368.91,313.56H437l4.5-5.17q7.25,5.34,7.24,7.25c0,.56-.36,1-1.07,1.34l-3,1.74v75.36q0,9.38-12.58,9.55-.17-3.31-4.32-4.83-3.6-1.24-13.37-2.42v-3.25q11.18,1.06,18.42,1.06,5.06,0,5.05-3.82V356.68H367.68v47.17h-6.8V310.13Q364.19,311.38,368.91,313.56Zm-1.23,2.86v37.4h31.95v-37.4Zm70.24,37.4v-37.4H406.2v37.4Z"/><path d="M375.25,288.3V266.25h5.07a8.93,8.93,0,0,1,1.55.14,5.26,5.26,0,0,1,1.45.48,4.79,4.79,0,0,1,1.25.9,4.94,4.94,0,0,1,.91,1.26,5.22,5.22,0,0,1,.5,1.47,8.81,8.81,0,0,1,.13,1.54,8.08,8.08,0,0,1-.13,1.46,4.27,4.27,0,0,1-.5,1.36,4.92,4.92,0,0,1-.9,1.14,4.38,4.38,0,0,1-1.2.81,6.55,6.55,0,0,1,1.49.81,4.56,4.56,0,0,1,1.17,1.23,4.89,4.89,0,0,1,.66,1.56,7.53,7.53,0,0,1,.19,1.71,9,9,0,0,1-.16,1.7,5.31,5.31,0,0,1-.59,1.6,5,5,0,0,1-1.06,1.32,5.86,5.86,0,0,1-1.43.93,6.16,6.16,0,0,1-1.63.5,10.91,10.91,0,0,1-1.7.13Zm2.34-12.48h2.73a5.2,5.2,0,0,0,1-.09,2.87,2.87,0,0,0,.9-.33,2.71,2.71,0,0,0,.74-.61,3.45,3.45,0,0,0,.51-.81,3.61,3.61,0,0,0,.27-.92,6.41,6.41,0,0,0,.07-1,6.2,6.2,0,0,0-.07-1,3.54,3.54,0,0,0-.27-.91,3.45,3.45,0,0,0-.51-.81,2.75,2.75,0,0,0-.74-.62,2.87,2.87,0,0,0-.9-.33,5.2,5.2,0,0,0-1-.09h-2.73Zm0,10.38h2.73a7.11,7.11,0,0,0,1.11-.09,3.81,3.81,0,0,0,1.07-.33,3.5,3.5,0,0,0,.91-.64,3.72,3.72,0,0,0,.69-.9,3.27,3.27,0,0,0,.36-1.05,7,7,0,0,0,0-2.24,3.24,3.24,0,0,0-.36-1.06,3.65,3.65,0,0,0-.67-.89,3.89,3.89,0,0,0-2-1,7.08,7.08,0,0,0-1.13-.09h-2.73Z"/><path d="M390.58,288.3v-2.1h4.08V268.35h-4.08v-2.1h10.5v2.1H397V286.2h4.08v2.1Z"/><path d="M409.9,288.54a5.59,5.59,0,0,1-1.47-.19,4,4,0,0,1-1.32-.63,4.24,4.24,0,0,1-1-1.05,5.56,5.56,0,0,1-.66-1.31,6.82,6.82,0,0,1-.33-1.42,12.29,12.29,0,0,1-.09-1.49V272.1a10.47,10.47,0,0,1,.12-1.57,5.67,5.67,0,0,1,.45-1.52,5.21,5.21,0,0,1,.87-1.32,4.82,4.82,0,0,1,2.72-1.53,8.43,8.43,0,0,1,1.57-.15,9.26,9.26,0,0,1,1.49.12,5,5,0,0,1,1.41.45,5.15,5.15,0,0,1,1.23.84,4.26,4.26,0,0,1,.9,1.17,6.22,6.22,0,0,1,.52,1.38,6,6,0,0,1,.18,1.47v.09h-2.34v-.06a4.06,4.06,0,0,0-.22-1.32,3,3,0,0,0-.69-1.14,2.68,2.68,0,0,0-1.13-.69,4.43,4.43,0,0,0-1.35-.21,3.83,3.83,0,0,0-1.45.29,2.67,2.67,0,0,0-1.16.88,3.48,3.48,0,0,0-.61,1.34,6.72,6.72,0,0,0-.17,1.48v10.35a8.43,8.43,0,0,0,.06,1,3.6,3.6,0,0,0,.26,1,3.49,3.49,0,0,0,.51.85,3.06,3.06,0,0,0,.73.66,3,3,0,0,0,.92.39,4.09,4.09,0,0,0,1,.12,4.17,4.17,0,0,0,1-.12,2.44,2.44,0,0,0,.88-.4,3,3,0,0,0,.68-.69,3.72,3.72,0,0,0,.45-.86,4.16,4.16,0,0,0,.22-.94,8.18,8.18,0,0,0,.06-1V278.4h-3.24v-2.1h5.58v12h-2.07v-3.45a7.28,7.28,0,0,1-.58,1.46,4.44,4.44,0,0,1-1,1.23,3.61,3.61,0,0,1-1.35.76A5.17,5.17,0,0,1,409.9,288.54Z"/><path d="M425.89,288.54a7.79,7.79,0,0,1-1.44-.13,4.81,4.81,0,0,1-1.35-.47,4.92,4.92,0,0,1-1.15-.84,5.15,5.15,0,0,1-.89-1.14,5.85,5.85,0,0,1-.55-1.32,9.53,9.53,0,0,1-.29-1.41v-.15h2.34v.12a5.63,5.63,0,0,0,.33,1.25,3.36,3.36,0,0,0,.68,1.08,2.67,2.67,0,0,0,1.05.69,3.65,3.65,0,0,0,1.27.22,3.18,3.18,0,0,0,1.13-.21,2.71,2.71,0,0,0,1-.63,3.47,3.47,0,0,0,.68-.94,6,6,0,0,0,.4-1.1,6.44,6.44,0,0,0,.2-1.15c0-.39,0-.78,0-1.16s0-.79,0-1.17a7.5,7.5,0,0,0-.18-1.14,5.25,5.25,0,0,0-.39-1.09,3.68,3.68,0,0,0-.66-1,2.63,2.63,0,0,0-1-.63,3.12,3.12,0,0,0-1.14-.21,3.87,3.87,0,0,0-1.2.2,2.54,2.54,0,0,0-1,.63,2.85,2.85,0,0,0-.66,1,4,4,0,0,0-.26,1.23h-2.34v-12.9h10.38v2.1h-8v6.42a4.53,4.53,0,0,1,1.52-.63A7.61,7.61,0,0,1,426,274a6.8,6.8,0,0,1,1.73.23,4.36,4.36,0,0,1,1.56.76,5.13,5.13,0,0,1,1.18,1.28,6.59,6.59,0,0,1,.75,1.56,8.83,8.83,0,0,1,.38,1.71,14.79,14.79,0,0,1,.1,1.75,15,15,0,0,1-.1,1.76,8.17,8.17,0,0,1-.39,1.71,7,7,0,0,1-.78,1.57,5.05,5.05,0,0,1-1.2,1.28,4.51,4.51,0,0,1-1.56.75A6.78,6.78,0,0,1,425.89,288.54Z"/><path d="M368.52,438.32v-14.4h2.78V438.1c0,3.13,2.19,5.42,5.76,5.42s5.73-2.29,5.73-5.42V423.92h2.78v14.4c0,4.49-3.37,7.78-8.51,7.78S368.52,442.81,368.52,438.32Z"/><path d="M390.84,423.92h3.29l8.87,14c.59.92,1.58,2.59,2.58,4.57-.17-2.11-.19-4-.19-5.14V423.92h2.78v21.82h-3.31L397,433.32c-1-1.57-1.83-3-3.53-6.06.12,2.8.22,5,.22,6v12.45h-2.8Z"/><path d="M416.23,445.74h-2.78V423.92h2.78Z"/><path d="M420.65,434.85c0-6.93,4.09-11.23,9.69-11.23a8.51,8.51,0,0,1,8.8,7.17h-2.78a5.83,5.83,0,0,0-6-4.59c-3.93,0-7,3.05-7,8.65s3.07,8.61,7,8.61a5.83,5.83,0,0,0,6-4.59h2.78a8.52,8.52,0,0,1-8.8,7.17C424.74,446,420.65,441.76,420.65,434.85Z"/></svg>