<svg id="Layer_1" data-name="Layer 1" xmlns="http://www.w3.org/2000/svg" viewBox="0 0 500 500"><defs><style>@media(prefers-color-scheme:dark){path{fill:#eee}}.cls-1{fill:#f2ae0b;}</style></defs><path d="M440.59,257.29c9.46,0,14.31-5.09,14.31-15.28q0-19.63-61.11-25.46L390.16,225c17.46,6.55,29.58,14.55,36.37,24.25C430.65,254.62,435.26,257.29,440.59,257.29Z"/><path d="M153.25,174.12l-11.64-4.85c-9.22,19.88-18,32-26.43,36.37-9.46,5.09-14.31,11.4-14.31,18.43-.24,9.46,5.09,14.06,16,14.06,7.27,0,15-5.82,23-17.21C146,212.19,150.58,196.43,153.25,174.12Z"/><path d="M17.94,316c8.49,22.55,15.28,33.47,20.85,33,2.91-.24,5.1-5.33,6.31-15.76,27.89-15.52,52.13-31.28,72-47.53L114,275C80.74,292.69,48.74,306.27,17.94,316Z"/><path d="M59.16,143.32c16.74-8.48,35.41-19.88,55.53-34.19l11.16-2.67q7.28-1.45,7.27-5.82c0-3.87-7.76-10.88-23.76-23L96.26,90.46h-71l5.57,12.37h56.5c-7.52,9.45-18.67,20.37-33.22,32.73Z"/><path d="M118.57,179.45l5.09-8a207.26,207.26,0,0,0-18.91-21.1L93.11,167.09H68.86c-7-3.64-16.24-8.25-27.64-13.34v48.5c0,33.22-6.79,59.65-20.13,79.29l9,7.76c25.21-25,37.82-54.08,37.82-87.05v-22.8Z"/><path d="M364.94,81.73c0,12.61,2.42,20.61,7.52,24,6.3,4.36,19.15,6.54,38.79,6.54,22.31,0,37.83-1.21,46.32-3.88,8.24-2.91,12.85-10.42,13.33-22.3-11.39.48-17-10.19-16.24-31.77l-10.91-1.94a141.83,141.83,0,0,1-4.37,27.16,11.12,11.12,0,0,1-6.3,7.27c-4.13,1.94-11.4,2.67-22.31,2.67-13.82.24-20.61-3.64-20.61-11.4V60.39c10.18-3.15,15.52-7,15.52-11.39,0-5.82-13.58-9.22-40.74-10.43Z"/><path d="M36.61,457.58q93.48-27.27,155.92-85.84c14.31,4.85,22.07,4.61,23.52-1,1.46-5.33-9.21-15.51-31.76-30.79Q111.9,416,31,446.67Z"/><path d="M297.77,351.86l-9.7,9c47,49.95,103.06,83.66,167.8,101.6a77.49,77.49,0,0,1,20.37-27.64Q374.39,413.33,297.77,351.86Z"/><path d="M365.91,239.59C374.64,233.28,379,228,379,223.83c0-5.58-15.52-4.85-46.07,1.7Q360.58,303,424.59,323c14.79,4.61,26.67,6.79,36.37,6.55,5.09,0,9.46-1.21,12.85-3.64A28,28,0,0,0,482.06,315a19.28,19.28,0,0,1-9.94-6.06c-2.19-2.91-3.4-6.79-3.4-11.64,0-3.39.24-7.52.49-12.12.48-4.61,1.21-10.19,2.42-16.25L461,263.84c-1.45,6.79-2.66,12.12-3.88,16s-2.18,7-2.91,9.7a17.23,17.23,0,0,1-3.88,7.28,8.77,8.77,0,0,1-6.79,2.66c-3.39,0-8.73-1-15.76-2.91C397.43,288.09,376.82,269.17,365.91,239.59Z"/><path d="M267,242.26V52.63q18.19-6.18,18.19-12.36c0-7-15.52-11.4-46.56-12.86V242.26Z"/><path d="M300.68,33.48v85.11c0,18.43,5.33,30.07,15.76,34.92,8.25,3.63,24,5.57,47.77,5.57,24.25,0,41.22-1.69,50.92-4.85,8.25-2.66,13.1-6.3,15-10.91,1.94-5.33.48-9.7-4.37-13.58-3.63-2.66-9-2.91-16.49-.72a145.13,145.13,0,0,1-43.16,6.06c-15,0-24.73-1-29.34-2.67-6.06-2.42-9.21-9.21-9.21-20.37V58c13.09-3.88,19.64-7.76,19.64-12.13Q347.24,36,300.68,33.48Z"/><path d="M55,63.3H190.83q-2.18,36.38-13.09,53.11c-5.58,8.48-11.4,12.85-17.7,12.85-8.25.24-21.83-1-40.5-3.4V137.5c13.1,1.94,21.83,4.61,26.19,7.52,4.12,2.91,6.31,7.52,6.55,14.55,20.12-.73,33-4.61,39-11.64,12.37-14.31,20.61-40.25,25-77.84l9.46-5.82c2.43-1.45,3.64-3.15,3.4-5.33q0-5.82-26.19-25.46l-15,17.46H49Z"/><path d="M154.22,249.29H75.41L81,261.66h73.23Q128,340.95,27.88,391.14l6.79,10.91q122.22-53.46,147.92-131.66L195,264.57c2.18-.73,3.39-2.67,3.39-5.82,0-4.37-9.21-13.58-27.16-27.89Z"/><path d="M214.84,472.38Q265,473.46,265,435.28V332c12.13-3.64,18-7.52,18-11.64,0-7.28-15.28-11.64-46.32-13.1V419.76c0,9.45-6.3,14.06-19.4,14.06q-21.81,0-65.47-3.64v12.61c21.83,3.15,37.35,6.31,47.05,9.46C209,455.89,214.35,462.68,214.84,472.38Z"/><path d="M284.68,281.3q68.74,89.47,172.4,120a104.24,104.24,0,0,1,23-26.68q-118.94-30.54-170.71-89.72l11.88-3.63c3.15-1,4.61-2.43,4.61-4.85q0-4.74-29.83-24l-16.49,16.49H203l4.36,12.37Z"/><path class="cls-1" d="M475.51,204.19l6.55-9.46a329.9,329.9,0,0,0-36.86-36.62L420,191.82H248l6.3,12.37Z"/><path class="cls-1" d="M170,164.42l-6.06,8.49c16,15.51,25.22,30.06,27.4,43.64,1.45,12.61,6.55,18.92,14.79,18.92,11.15,0,16.73-5.82,16.73-17C222.84,198.85,205.14,180.91,170,164.42Z"/></svg>